<?xml version="1.0" encoding="UTF-8" standalone="no"?>
<svg width="223px" height="58px" viewBox="0 0 223 58" version="1.1" xmlns="http://www.w3.org/2000/svg" xmlns:xlink="http://www.w3.org/1999/xlink">
    <!-- Generator: Sketch 50.2 (55047) - http://www.bohemiancoding.com/sketch -->
    <title>svg/logo</title>
    <desc>Created with Sketch.</desc>
    <defs></defs>
    <g id="Icons" stroke="none" stroke-width="1" fill="none" fill-rule="evenodd">
        <g transform="translate(-75.000000, -107.000000)" fill="#FEFEFE" id="logo">
            <g transform="translate(75.000000, 107.000000)">
                <path d="M28.4130352,44.6097333 C27.6551623,43.8960571 26.2184753,42.6852381 24.3859496,42.0875619 C21.7055878,41.2125905 19.1975193,42.4758857 19.1975193,42.4758857 L19.1975193,55.4540762 C19.1975193,55.4540762 21.2410499,54.791219 23.8543482,55.4540762 C25.7446685,55.9324381 27.4839594,57.1714286 28.4130352,57.7961714 L28.4130352,44.6097333 Z" id="Fill-1"></path>
                <path d="M29.4089565,44.6097333 C30.1673746,43.8960571 31.6040616,42.6852381 33.4365873,42.0875619 C36.1164039,41.2125905 38.6250176,42.4758857 38.6250176,42.4758857 L38.6250176,55.4540762 C38.6250176,55.4540762 36.581487,54.791219 33.9681888,55.4540762 C32.0773232,55.9324381 30.3380323,57.1714286 29.4089565,57.7961714 L29.4089565,44.6097333 Z" id="Fill-3"></path>
                <path d="M44.5115088,33.3765143 C43.5955186,33.864819 41.9909,34.8348 40.8257386,36.3875429 C39.1213425,38.6589333 39.4637484,41.4738667 39.4637484,41.4738667 L51.5471861,45.7846476 C51.5471861,45.7846476 51.6087973,43.611581 53.0934648,41.3346667 C54.1675724,39.6863619 55.8981396,38.4363238 56.7895944,37.7557905 L44.5115088,33.3765143 Z" id="Fill-5"></path>
                <path d="M44.8424103,32.4249829 C44.4302147,31.46384 43.7797526,29.6884876 43.8315496,27.7391352 C43.9073369,24.88664 45.9165178,22.9085638 45.9165178,22.9085638 L57.998865,27.2193448 C57.998865,27.2193448 56.7039384,28.9521638 56.4525863,31.6704305 C56.2704787,33.6352495 56.846244,35.70944 57.1194054,36.804259 L44.8424103,32.4249829 Z" id="Fill-7"></path>
                <path d="M13.4873017,33.3765143 C14.4038372,33.864819 16.009001,34.8348 17.1736171,36.3875429 C18.8780132,38.6589333 18.5356073,41.4738667 18.5356073,41.4738667 L6.45271491,45.7846476 C6.45271491,45.7846476 6.39110367,43.611581 4.90534572,41.3346667 C3.83178337,39.6863619 2.10121614,38.4363238 1.21085183,37.7557905 L13.4873017,33.3765143 Z" id="Fill-9"></path>
                <path d="M13.1566183,32.4249829 C13.5693592,31.46384 14.2198213,29.6884876 14.167479,27.7391352 C14.0922369,24.88664 12.083056,22.9085638 12.083056,22.9085638 L0.000163569682,27.2193448 C0.000163569682,27.2193448 1.29563545,28.9521638 1.54698753,31.6704305 C1.72854988,33.6352495 1.15332983,35.70944 0.879623227,36.804259 L13.1566183,32.4249829 Z" id="Fill-11"></path>
                <path d="M39.2812046,14.7870724 C39.5107474,15.8095295 40.0259919,17.6296248 41.2086007,19.1696629 C42.9375323,21.4195105 45.7122193,21.8061771 45.7122193,21.8061771 L52.9234614,11.078939 C52.9234614,11.078939 50.8657548,10.4624819 49.0730311,8.42364381 C47.7770139,6.94933905 47.0278648,4.93370095 46.6074907,3.88749143 L39.2812046,14.7870724 Z" id="Fill-13"></path>
                <path d="M38.4574677,14.2185067 C37.434612,14.3764876 35.5742795,14.5576686 33.7275778,14.0069448 C31.0254066,13.2021257 29.6552379,10.727459 29.6552379,10.727459 L36.8653895,0.000220952381 C36.8653895,0.000220952381 38.1859421,1.71315429 40.7141841,2.65606857 C42.5428932,3.33881143 44.6698443,3.30732571 45.7837538,3.32003048 L38.4574677,14.2185067 Z" id="Fill-15"></path>
                <path d="M18.5636868,14.8070686 C18.3335988,15.8306305 17.8188995,17.6501733 16.6362907,19.189659 C14.9068139,21.4417162 12.1321269,21.8267257 12.1321269,21.8267257 L4.92143007,11.0994876 C4.92143007,11.0994876 6.97913667,10.4830305 8.77131516,8.44419238 C10.0673323,6.96988762 10.8164814,4.95424952 11.2374007,3.90804 L18.5636868,14.8070686 Z" id="Fill-17"></path>
                <path d="M19.3871511,14.2395524 C20.4100068,14.396981 22.2708846,14.5776095 24.1170411,14.0274381 C26.8192122,13.222619 28.1899262,10.7479524 28.1899262,10.7479524 L20.9797746,0.0207142857 C20.9797746,0.0207142857 19.659222,1.7342 17.1298895,2.67545714 C15.3017257,3.35875238 13.1753198,3.32726667 12.0603198,3.34052381 L19.3871511,14.2395524 Z" id="Fill-19"></path>
                <path d="M71.3151819,15.51152 C70.6352773,15.4916343 70.1892773,15.4916343 69.5480841,15.7286057 L69.5480841,21.1413867 C70.1691037,21.5175581 70.6352773,21.6528914 71.334265,21.6352152 C73.373979,21.5755581 74.6171086,20.216701 74.5587687,18.4452152 C74.5009741,16.5748533 73.6465951,15.5905105 71.3151819,15.51152 M71.9950866,22.3035962 C71.0049447,22.2649295 70.38338,22.1660533 69.5480841,21.6528914 L69.5480841,27.698701 C69.5480841,28.0135581 69.5480841,28.2096533 69.606424,28.5062819 C69.6642186,28.800701 69.7225584,28.9581295 69.8397834,29.23432 L67.6245046,29.23432 C67.7798958,29.0177867 67.9162039,28.8796914 67.975089,28.6051581 C68.0138005,28.32952 68.0138005,27.9550057 68.0138005,27.5600533 L68.0138005,15.8860343 C68.0138005,15.5905105 68.0710499,15.3922057 67.9941721,15.11712 C67.9162039,14.8812533 67.8387809,14.7442629 67.6828445,14.5260724 L72.0534264,14.5260724 C74.2485315,14.5260724 76.2293604,16.1605676 76.1710205,18.4844343 C76.0925071,20.689539 74.442089,22.3632533 71.9950866,22.3035962" id="Fill-21"></path>
                <path d="M80.8120377,15.3923162 C80.2117369,15.3923162 79.8426147,15.4127543 79.2788445,15.6685067 L79.2788445,20.7482019 C79.5498249,20.787421 80.0759741,20.8073067 80.5410572,20.787421 C82.5420597,20.6299924 83.7442968,19.5672114 83.6303433,17.9332686 C83.5518298,16.7517257 83.1630792,15.4917448 80.8120377,15.3923162 Z M85.7273066,29.2537638 L79.8993188,21.5751162 C79.7450181,21.3795733 79.6872235,21.2414781 79.5122039,21.1028305 C79.4342357,21.0243924 79.3568127,20.9840686 79.2597614,20.926621 L79.2597614,27.6789257 C79.2597614,27.9948876 79.2406782,28.1722019 79.317556,28.487059 C79.3568127,28.7638019 79.4342357,28.9195733 79.531287,29.1963162 L77.3945218,29.1963162 C77.510111,28.95824 77.6082528,28.8218019 77.6273359,28.5853829 C77.6856758,28.289859 77.6856758,27.6408114 77.6856758,27.0889829 L77.6856758,16.5335352 C77.6856758,15.9839162 77.6665927,15.6685067 77.5700866,15.1172305 C77.510111,14.8614781 77.4141501,14.7239352 77.2969252,14.5062971 L81.6680523,14.5062971 C83.5714582,14.5062971 85.2807614,15.7861638 85.2224215,17.8929448 C85.18371,19.9400686 83.4149765,21.6927733 81.2793017,21.3591352 C81.3965267,21.4569067 81.453776,21.5375543 81.5693653,21.6353257 C81.9788347,22.0291733 82.2111037,22.2849257 82.5802259,22.7572114 L86.0369985,27.20664 C86.4851795,27.7976876 86.8341281,28.2705257 87.2817638,28.6627162 C87.5527443,28.90024 87.728309,29.0383352 88.0183726,29.2537638 L85.7273066,29.2537638 Z" id="Fill-23"></path>
                <path d="M91.3205174,15.1172305 C91.1847545,15.5900686 91.1847545,15.7281638 91.1847545,15.9446971 L91.1847545,26.7531352 C91.1847545,27.5021638 91.1847545,28.1722019 91.2441848,28.6627162 C91.2812606,28.90024 91.3984856,29.0178971 91.5151653,29.2145448 L89.2420919,29.2145448 C89.3582264,29.0383352 89.4171115,28.9195733 89.4754513,28.7234781 C89.5926763,28.44784 89.5926763,28.25064 89.5926763,27.9551162 L89.5926763,15.9839162 C89.5926763,15.68784 89.5725027,15.5116305 89.4754513,15.216659 C89.3980284,14.9598019 89.3200601,14.7819352 89.1646689,14.546621 L91.5538768,14.546621 C91.4573707,14.7443733 91.3984856,14.8995924 91.3205174,15.1172305" id="Fill-25"></path>
                <path d="M106.469905,15.1555105 C106.413201,15.4725771 106.413201,15.649339 106.413201,15.9448629 L106.431194,29.7079867 L94.699976,16.5745771 L94.699976,27.5023295 C94.699976,27.936501 94.699976,27.936501 94.8362841,28.5849962 C94.8755408,28.8219676 94.9333355,28.9578533 95.0107584,29.2141581 L93.1667829,29.2141581 C93.30091,29.0180629 93.3799687,28.9004057 93.4192254,28.6838724 C93.4955579,28.3877962 93.4955579,28.191701 93.4955579,27.8961771 L93.4955579,15.6095676 C93.4955579,15.3731486 93.4563012,15.1958343 93.340712,14.9804057 C93.2431154,14.7616629 93.1269809,14.6445581 92.9328782,14.5257962 L95.0685531,14.5257962 L105.227866,26.28212 L105.227866,16.948539 C105.227866,16.2398343 105.266032,15.7863295 105.129724,15.0781771 C105.090467,14.8616438 105.051756,14.724101 104.994507,14.5059105 L106.625296,14.5059105 C106.547873,14.744539 106.509707,14.8997581 106.469905,15.1555105" id="Fill-27"></path>
                <path d="M119.813429,28.958019 C118.531043,29.4319619 117.696292,29.4319619 116.316855,29.471181 C111.481735,29.6877143 107.986251,26.3386286 107.964441,21.9488571 C107.945903,17.557981 111.481735,14.2906476 116.162009,14.330419 C117.483106,14.3486476 118.33694,14.4287429 119.58007,14.959581 L119.58007,16.3974286 C118.414908,15.7284952 117.560529,15.4915238 116.201265,15.4727429 C112.297402,15.3920952 109.61704,18.3268952 109.577784,21.9488571 C109.521079,25.7696762 112.49096,28.3879619 116.298317,28.2896381 C117.619414,28.2708571 119.171691,28.0134476 120.58984,27.0108762 L119.813429,28.958019 Z" id="Fill-29"></path>
                <path d="M130.282543,29.2142686 L121.911047,29.2142686 C122.047355,29.0181733 122.105695,28.8800781 122.163489,28.6629924 C122.242003,28.3879067 122.202746,28.191259 122.202746,27.9161733 L122.202746,15.5903448 C122.202746,15.33404 122.163489,15.176059 122.085521,14.9595257 C122.009734,14.781659 121.950303,14.68444 121.814541,14.5463448 L129.214433,14.5463448 L129.214433,16.022859 C129.039413,15.8460971 128.884022,15.7466686 128.650663,15.6687829 C128.320797,15.5511257 128.088528,15.6096781 127.758118,15.6096781 L123.813362,15.6096781 L123.813362,20.4535067 L129.214433,20.4535067 L129.214433,21.8521352 C128.922734,21.71404 128.729176,21.6532781 128.39822,21.5753924 C128.165951,21.5378305 127.990387,21.5378305 127.758118,21.5378305 L123.872792,21.5378305 L123.872792,28.1117162 L128.514355,28.1117162 C129.156638,28.1117162 129.52467,28.0741543 130.126061,27.8764019 C130.398678,27.7979638 130.553523,27.7189733 130.787428,27.56044 L130.282543,29.2142686 Z" id="Fill-31"></path>
                <path d="M149.180893,22.4421886 C149.10238,22.6587219 149.122008,22.8167029 149.122008,23.0520171 L149.141637,27.9549505 C148.112238,28.6448743 146.248089,29.3342457 144.305426,29.4126838 C139.663319,29.6093314 136.011898,26.2226838 136.069693,21.9306838 C136.148206,17.0868552 139.507928,14.3100362 143.955933,14.3487029 C145.431331,14.3702457 146.363678,14.4287981 147.724033,14.9596362 L147.724033,16.4759219 C146.344595,15.6302267 144.887189,15.5114648 143.664778,15.5114648 C139.567358,15.5700171 137.565265,18.7992362 137.642688,21.9102457 C137.759913,25.5537505 140.556409,28.2896933 144.363221,28.1118267 C145.587267,28.0532743 146.499986,27.8555219 147.64661,27.1876933 L147.64661,24.3711029 C147.64661,23.7215029 147.683686,23.2492171 147.490128,22.6382838 C147.393622,22.3234267 147.256769,22.1659981 147.044673,21.9306838 L149.451874,21.9306838 C149.316656,22.1079981 149.238688,22.2251029 149.180893,22.4421886" id="Fill-33"></path>
                <path d="M159.706984,29.2142686 L151.334397,29.2142686 C151.472341,29.0181733 151.530681,28.8800781 151.58684,28.6629924 C151.665353,28.3879067 151.627187,28.191259 151.627187,27.9161733 L151.627187,15.5903448 C151.627187,15.33404 151.58684,15.176059 151.511053,14.9595257 C151.432539,14.781659 151.37638,14.68444 151.238982,14.5463448 L158.638874,14.5463448 L158.638874,16.022859 C158.463855,15.8460971 158.308463,15.7466686 158.076194,15.6687829 C157.746874,15.5511257 157.512969,15.6096781 157.182013,15.6096781 L153.240529,15.6096781 L153.240529,20.4535067 L158.638874,20.4535067 L158.638874,21.8521352 C158.34772,21.71404 158.153617,21.6532781 157.822116,21.5753924 C157.591483,21.5378305 157.414828,21.5378305 157.182013,21.5378305 L153.298869,21.5378305 L153.298869,28.1117162 L157.939886,28.1117162 C158.581079,28.1117162 158.949656,28.0741543 159.553229,27.8764019 C159.824209,27.7979638 159.979055,27.7189733 160.213505,27.56044 L159.706984,29.2142686 Z" id="Fill-35"></path>
                <path d="M168.272583,15.539581 C164.796182,15.4992571 162.524744,18.4672 162.466405,21.791981 C162.406974,25.1151048 164.719304,28.1233714 168.097018,28.204019 C171.458375,28.2824571 174.041686,25.2150857 174.041686,21.8317524 C174.002974,18.4870857 171.671561,15.5970286 168.272583,15.539581 M168.059397,29.4297524 C164.059573,29.2922095 160.813806,25.9668762 160.813806,21.8715238 C160.813806,17.6960762 164.232412,14.2127619 168.389808,14.3309714 C172.526485,14.4906095 175.536713,17.7745143 175.61359,21.8317524 C175.691559,26.2646095 172.177537,29.5286286 168.059397,29.4297524" id="Fill-37"></path>
                <path d="M180.87759,15.3923162 C180.275654,15.3923162 179.905986,15.4127543 179.342761,15.6685067 L179.342761,20.7482019 C179.615922,20.787421 180.139345,20.8073067 180.605519,20.787421 C182.607612,20.6299924 183.809849,19.5672114 183.693715,17.9332686 C183.615201,16.7517257 183.228086,15.4917448 180.87759,15.3923162 Z M185.791768,29.2537638 L179.964871,21.5751162 C179.80948,21.3795733 179.751685,21.2414781 179.576666,21.1028305 C179.499243,21.0243924 179.421275,20.9840686 179.324223,20.926621 L179.324223,27.6789257 C179.324223,27.9948876 179.30514,28.1722019 179.382563,28.487059 C179.421275,28.7638019 179.499243,28.9195733 179.596839,29.1963162 L177.459529,29.1963162 C177.577299,28.95824 177.67326,28.8218019 177.691798,28.5853829 C177.751228,28.289859 177.751228,27.6408114 177.751228,27.0889829 L177.751228,16.5335352 C177.751228,15.9839162 177.731055,15.6685067 177.633458,15.1172305 C177.577299,14.8614781 177.478612,14.7239352 177.362478,14.5062971 L181.732514,14.5062971 C183.635375,14.5062971 185.344678,15.7861638 185.286338,17.8929448 C185.247627,19.9400686 183.480529,21.6927733 181.344854,21.3591352 C181.461534,21.4569067 181.517693,21.5375543 181.634918,21.6353257 C182.042206,22.0291733 182.276656,22.2849257 182.645233,22.7572114 L186.102551,27.20664 C186.550732,27.7976876 186.899135,28.2705257 187.34568,28.6627162 C187.618297,28.90024 187.792226,29.0383352 188.083925,29.2537638 L185.791768,29.2537638 Z" id="Fill-39"></path>
                <path d="M200.515548,22.4421886 C200.43758,22.6587219 200.456663,22.8167029 200.456663,23.0520171 L200.476291,27.9549505 C199.447438,28.6448743 197.581653,29.3342457 195.640626,29.4126838 C190.998519,29.6093314 187.346008,26.2226838 187.403802,21.9306838 C187.482316,17.0868552 190.841492,14.3100362 195.291132,14.3487029 C196.766531,14.3702457 197.697788,14.4287981 199.058142,14.9596362 L199.058142,16.4759219 C197.678704,15.6302267 196.222934,15.5114648 194.998343,15.5114648 C190.900922,15.5700171 188.901555,18.7992362 188.978433,21.9102457 C189.094567,25.5537505 191.892154,28.2896933 195.698421,28.1118267 C196.921922,28.0532743 197.834096,27.8555219 198.98181,27.1876933 L198.98181,24.3711029 C198.98181,23.7215029 199.019431,23.2492171 198.824783,22.6382838 C198.728277,22.3234267 198.592514,22.1659981 198.378237,21.9306838 L200.787619,21.9306838 C200.651311,22.1079981 200.573343,22.2251029 200.515548,22.4421886" id="Fill-41"></path>
                <path d="M210.497442,29.2142686 L202.126491,29.2142686 C202.262799,29.0181733 202.321139,28.8800781 202.380569,28.6629924 C202.455811,28.3879067 202.41819,28.191259 202.41819,27.9161733 L202.41819,15.5903448 C202.41819,15.33404 202.380569,15.176059 202.301511,14.9595257 C202.223543,14.781659 202.165748,14.68444 202.02944,14.5463448 L209.428242,14.5463448 L209.428242,16.022859 C209.255403,15.8460971 209.098922,15.7466686 208.868288,15.6687829 C208.536242,15.5511257 208.303973,15.6096781 207.973562,15.6096781 L204.029897,15.6096781 L204.029897,20.4535067 L209.428242,20.4535067 L209.428242,21.8521352 C209.138723,21.71404 208.944076,21.6532781 208.61421,21.5753924 C208.380851,21.5378305 208.206922,21.5378305 207.973562,21.5378305 L204.088237,21.5378305 L204.088237,28.1117162 L208.730344,28.1117162 C209.372083,28.1117162 209.740115,28.0741543 210.342051,27.8764019 C210.614667,27.7979638 210.769513,27.7189733 211.003963,27.56044 L210.497442,29.2142686 Z" id="Fill-43"></path>
                <path d="M211.789697,17.0511162 C211.655025,17.3267543 211.500179,17.4908114 211.249372,17.6863543 L210.970213,17.6863543 L211.066719,17.3941448 C211.249372,16.94064 211.345878,16.2617638 211.15014,16.1639924 C210.991477,16.066221 210.846445,16.0463352 210.668155,16.086659 L210.668155,14.546621 L212.081397,14.546621 L212.081397,16.0275543 C212.081397,16.43024 212.001247,16.6931733 211.789697,17.0511162" id="Fill-45"></path>
                <path d="M217.139789,29.4710152 C215.877576,29.4522343 215.081537,29.490901 213.897293,29.038501 L213.897293,27.4824438 C214.963767,28.3679105 215.917378,28.4667867 217.296816,28.4872248 C219.587882,28.5662152 220.986403,27.5216629 220.986403,25.69052 C220.986403,24.2918914 219.955368,23.5638533 218.752041,22.876139 L216.11039,21.3394152 C214.692241,20.4926152 213.856945,19.5276057 213.837862,17.9522152 C213.818779,15.6300057 216.070589,14.2496057 218.519772,14.3302533 C219.66585,14.3700248 220.382831,14.3302533 221.431312,14.7616629 L221.431312,16.2790533 C220.616735,15.4913581 219.801068,15.3140438 218.676799,15.2748248 C217.081994,15.1759486 215.33398,16.2586152 215.470288,17.8743295 C215.565703,18.9177771 216.266872,19.4883867 217.179046,20.0203295 L219.490831,21.379739 C221.237755,22.403301 222.694615,22.95292 222.790576,25.4546533 C222.909437,28.7026533 219.762901,29.53012 217.139789,29.4710152" id="Fill-47"></path>
                <path d="M74.648623,43.013021 C73.9049262,43.2870019 73.4223956,43.2870019 72.6230851,43.3102019 C69.8211364,43.4361448 67.7961438,41.4956305 67.7846939,38.9519162 C67.773244,36.4082019 69.8211364,34.5140876 72.533667,34.5383924 C73.2986279,34.5499924 73.7926083,34.5947352 74.5139506,34.9024114 L74.5139506,35.7354019 C73.8389531,35.3487352 73.3433369,35.21064 72.5549311,35.19904 C70.2938528,35.1531924 68.7404861,36.853421 68.7186768,38.9519162 C68.6854176,41.1664114 70.4061707,42.6815924 72.6121804,42.6246971 C73.3765961,42.6142019 74.277865,42.4656114 75.0989848,41.885059 L74.648623,43.013021 Z" id="Fill-49"></path>
                <path d="M79.7822575,35.3006781 C77.7687147,35.2780305 76.4519787,36.9986971 76.4176291,38.9248495 C76.3849152,40.8493448 77.7229152,42.592659 79.680299,42.6385067 C81.6278687,42.6832495 83.1239861,40.9073448 83.1239861,38.9469448 C83.1016315,37.0097448 81.7527269,35.3360305 79.7822575,35.3006781 M79.659035,43.3499733 C77.3407073,43.2687733 75.4612917,41.3431733 75.4612917,38.9701448 C75.4612917,36.5507162 77.4410301,34.5323162 79.8504115,34.6008114 C82.2467073,34.693059 83.9909054,36.5965638 84.0361597,38.9469448 C84.0814139,41.5149638 82.0444262,43.4063162 79.659035,43.3499733" id="Fill-51"></path>
                <path d="M93.6548203,43.1629371 C93.67772,43.0474895 93.6886247,42.9673943 93.6995293,42.8536038 C93.7218839,42.6497752 93.6995293,42.5227276 93.67772,42.3177943 L92.9809132,35.59808 L89.6942531,43.4695086 L86.3405293,35.8958133 L85.9010721,42.2266514 C85.8901675,42.46528 85.8787176,42.46528 85.9348765,42.8536038 C85.9474169,42.9673943 85.9583215,43.0358895 85.9910355,43.1629371 L84.9676345,43.1629371 C85.0341528,43.0590895 85.0804976,43.0021943 85.1126663,42.9000038 C85.1693704,42.7398133 85.159011,42.6144229 85.1813655,42.44208 L85.7762139,35.4384419 C85.7898447,35.2799086 85.8225587,35.152861 85.7762139,35.0053752 C85.7440452,34.8451848 85.6993362,34.7650895 85.5864731,34.6518514 L86.7227372,34.6518514 L89.7618619,41.6897371 L92.6761284,34.639699 L93.9814144,34.639699 C93.9367054,34.7214514 93.9132604,34.7650895 93.879456,34.8451848 C93.7905831,35.0860229 93.7905831,35.2451086 93.8243875,35.4969943 L94.5211944,41.7245371 C94.5549988,42.1355086 94.5768081,42.43048 94.6444169,42.8077562 C94.6678619,42.9441943 94.7583704,43.0358895 94.8368839,43.1629371 L93.6548203,43.1629371 Z" id="Fill-53"></path>
                <path d="M104.721836,43.1629371 C104.744736,43.0474895 104.756186,42.9673943 104.76709,42.8536038 C104.789445,42.6497752 104.76709,42.5227276 104.744736,42.3177943 L104.046838,35.59808 L100.760178,43.4695086 L97.407545,35.8958133 L96.9691782,42.2266514 C96.9582736,42.46528 96.9473689,42.46528 97.0029826,42.8536038 C97.0144325,42.9673943 97.0253372,43.0358895 97.0596868,43.1629371 L96.0346501,43.1629371 C96.1022589,43.0590895 96.146968,43.0021943 96.1813176,42.9000038 C96.2374765,42.7398133 96.2260267,42.6144229 96.2483812,42.44208 L96.8448653,35.4384419 C96.8568604,35.2799086 96.8906648,35.152861 96.8448653,35.0053752 C96.8121513,34.8451848 96.7658066,34.7650895 96.654034,34.6518514 L97.7908433,34.6518514 L100.829423,41.6897371 L103.742054,34.639699 L105.04734,34.639699 C105.003721,34.7214514 104.981367,34.7650895 104.947562,34.8451848 C104.857599,35.0860229 104.857599,35.2451086 104.891403,35.4969943 L105.587665,41.7245371 C105.62256,42.1355086 105.644369,42.43048 105.712523,42.8077562 C105.735423,42.9441943 105.824841,43.0358895 105.903354,43.1629371 L104.721836,43.1629371 Z" id="Fill-55"></path>
                <path d="M113.813202,35.0293486 C113.790848,35.1878819 113.801753,35.2795771 113.801753,35.4381105 L113.801753,40.4244533 C113.801753,42.0661295 112.417953,43.2647962 110.68466,43.2984914 C108.828144,43.321139 107.319486,42.1125295 107.319486,40.377501 L107.319486,35.4850629 C107.319486,35.3364724 107.332026,35.2453295 107.308581,35.0961867 C107.285682,34.9155581 107.263872,34.8106057 107.207168,34.65152 L108.355427,34.65152 C108.299814,34.7763581 108.276914,34.8575581 108.254014,35.0055962 C108.220755,35.1530819 108.230569,35.2569295 108.230569,35.4049676 L108.230569,40.2747581 C108.230569,41.5877676 109.389733,42.6030438 110.68466,42.5577486 C111.966501,42.5223962 112.867224,41.5546248 112.867224,40.3438057 L112.867224,35.4618629 C112.867224,35.2911771 112.867224,35.1878819 112.84596,35.0293486 C112.812156,34.8796533 112.788711,34.7885105 112.732552,34.65152 L113.903166,34.65152 C113.858457,34.7885105 113.835012,34.8796533 113.813202,35.0293486" id="Fill-57"></path>
                <path d="M123.393915,35.0164229 C123.360656,35.199261 123.360656,35.3020038 123.360656,35.4721371 L123.372651,43.4490705 L116.574695,35.837261 L116.574695,42.1686514 C116.574695,42.4210895 116.574695,42.4210895 116.654299,42.7961562 C116.677199,42.9342514 116.709367,43.0132419 116.756257,43.1629371 L115.685966,43.1629371 C115.76448,43.0474895 115.810279,42.9789943 115.832089,42.8536038 C115.878433,42.6818133 115.878433,42.5685752 115.878433,42.3967848 L115.878433,35.2799086 C115.878433,35.1429181 115.856624,35.0390705 115.787379,34.9153371 C115.731766,34.7888419 115.663612,34.7214514 115.551839,34.6518514 L116.787881,34.6518514 L122.674208,41.4621562 L122.674208,36.0537943 C122.674208,35.64448 122.697653,35.3815467 122.618049,34.9722324 C122.595695,34.8451848 122.572795,34.7650895 122.540626,34.639699 L123.485514,34.639699 C123.44026,34.7761371 123.417905,34.86728 123.393915,35.0164229" id="Fill-59"></path>
                <path d="M126.676758,34.9942724 C126.598245,35.267701 126.598245,35.348901 126.598245,35.4720819 L126.598245,41.7355295 C126.598245,42.1685962 126.598245,42.5574724 126.631504,42.8430533 C126.653859,42.978939 126.722013,43.0474343 126.790167,43.1628819 L125.472886,43.1628819 C125.539949,43.0590343 125.574844,42.990539 125.607558,42.8767486 C125.675167,42.7165581 125.675167,42.6027676 125.675167,42.4304248 L125.675167,35.496939 C125.675167,35.3240438 125.664807,35.2229581 125.607558,35.0511676 C125.562849,34.9025771 125.517595,34.7998343 125.428177,34.6633962 L126.812521,34.6633962 C126.755272,34.7760819 126.722013,34.8677771 126.676758,34.9942724" id="Fill-61"></path>
                <path d="M134.368841,35.3487352 C134.188369,35.2912876 134.064056,35.2680876 133.87377,35.2680876 L132.039609,35.2680876 L132.039609,42.3971162 C132.039609,42.5683543 132.028159,42.5352114 132.085408,42.8539352 C132.095222,42.9677257 132.142112,43.047821 132.20754,43.1627162 L130.902799,43.1627162 C130.958958,43.0588686 130.981313,42.9903733 131.016208,42.8870781 C131.049467,42.7169448 131.027657,42.6031543 131.027657,42.421421 L131.027657,35.3017829 L128.911066,35.3017829 C128.798748,35.3017829 128.731139,35.3139352 128.618821,35.3487352 C128.439985,35.3818781 128.326032,35.438221 128.180455,35.5304686 L128.359836,34.6516305 L134.673626,34.6516305 L134.751049,35.4851733 C134.618012,35.4161257 134.516054,35.3818781 134.368841,35.3487352" id="Fill-63"></path>
                <path d="M141.955257,34.9597486 C141.853844,35.0961867 141.797685,35.1878819 141.707722,35.3364724 L139.39103,38.8606629 L139.39103,42.6361867 C139.39103,42.7400343 139.400844,42.8079771 139.423744,42.9228724 C139.445553,43.0129105 139.455912,43.0709105 139.490807,43.173101 L138.399798,43.173101 C138.445052,43.0709105 138.467952,43.0024152 138.478311,42.9112724 C138.501211,42.8311771 138.490306,42.7731771 138.490306,42.6814819 L138.490306,38.8606629 L136.204692,35.2232343 C136.126724,35.0961867 136.080379,35.0293486 135.990416,34.902301 C135.911903,34.8106057 135.857379,34.7426629 135.742335,34.65152 L137.093421,34.65152 C137.082516,34.7647581 137.093421,34.8454057 137.115776,34.9481486 C137.162666,35.0961867 137.218279,35.1773867 137.297338,35.3016724 L139.052441,38.1889676 L140.964025,35.1193867 C141.022365,35.0293486 141.067074,34.9597486 141.088883,34.8575581 C141.098697,34.7763581 141.098697,34.72112 141.088883,34.63992 L142.237142,34.63992 C142.113375,34.7537105 142.044675,34.8349105 141.955257,34.9597486" id="Fill-65"></path>
                <path d="M153.25416,43.013021 C152.512099,43.2870019 152.027933,43.2870019 151.229167,43.3102019 C148.427219,43.4361448 146.401136,41.4956305 146.389686,38.9519162 C146.377145,36.4082019 148.427219,34.5140876 151.139204,34.5383924 C151.904165,34.5499924 152.399236,34.5947352 153.119488,34.9024114 L153.119488,35.7354019 C152.44449,35.3487352 151.947784,35.21064 151.162104,35.19904 C148.899935,35.1531924 147.346023,36.853421 147.324759,38.9519162 C147.289864,41.1664114 149.011708,42.6815924 151.216627,42.6246971 C151.983224,42.6142019 152.882857,42.4656114 153.704522,41.885059 L153.25416,43.013021 Z" id="Fill-67"></path>
                <path d="M157.998335,35.2332876 C155.982611,35.2100876 154.666421,36.9290971 154.632616,38.8558019 C154.598812,40.7814019 155.937902,42.5247162 157.895286,42.569459 C159.842311,42.615859 161.340064,40.8388495 161.340064,38.8790019 C161.317709,36.9406971 159.966078,35.2675352 157.998335,35.2332876 M157.873477,43.2803733 C155.555695,43.2002781 153.676824,41.2746781 153.676824,38.9022019 C153.676824,36.482221 155.657108,34.463821 158.064854,34.5323162 C160.461149,34.6251162 162.205347,36.5280686 162.250602,38.8790019 C162.296946,41.4459162 160.258323,43.3367162 157.873477,43.2803733" id="Fill-69"></path>
                <path d="M168.22891,43.149459 L163.355624,43.149459 C163.412328,43.0704686 163.458128,43.0019733 163.489751,42.9108305 C163.55845,42.7500876 163.547,42.6362971 163.547,42.4556686 L163.547,35.4724686 C163.547,35.3017829 163.536096,35.21064 163.489751,35.0388495 C163.446133,34.8913638 163.399788,34.788621 163.309824,34.6637829 L164.616201,34.6637829 C164.558952,34.7764686 164.525692,34.8576686 164.491888,34.9808495 C164.424279,35.2448876 164.446634,35.4161257 164.446634,35.7006019 L164.458629,42.4993067 L167.699489,42.4893638 C167.890866,42.4893638 168.003184,42.4772114 168.195106,42.4092686 C168.363582,42.351821 168.307423,42.421421 168.588218,42.1689829 L168.22891,43.149459 Z" id="Fill-71"></path>
                <path d="M174.297563,43.149459 L169.425368,43.149459 C169.481527,43.0704686 169.526781,43.0019733 169.561131,42.9108305 C169.628194,42.7500876 169.617289,42.6362971 169.617289,42.4556686 L169.617289,35.4724686 C169.617289,35.3017829 169.60584,35.21064 169.561131,35.0388495 C169.515331,34.8913638 169.470077,34.788621 169.379568,34.6637829 L170.6854,34.6637829 C170.628695,34.7764686 170.595981,34.8576686 170.561632,34.9808495 C170.494023,35.2448876 170.516923,35.4161257 170.516923,35.7006019 L170.527827,42.4993067 L173.768688,42.4893638 C173.96061,42.4893638 174.072928,42.4772114 174.263759,42.4092686 C174.433326,42.351821 174.376077,42.421421 174.657962,42.1689829 L174.297563,43.149459 Z" id="Fill-73"></path>
                <path d="M180.367253,43.1629371 L175.516321,43.1629371 C175.59647,43.0474895 175.63082,42.9673943 175.662989,42.8431086 C175.709333,42.6818133 175.685343,42.5685752 175.685343,42.4094895 L175.685343,35.2677562 C175.685343,35.1191657 175.662989,35.0291276 175.618279,34.9026324 C175.57357,34.7998895 175.540311,34.7429943 175.461253,34.6634514 L179.746778,34.6634514 L179.746778,35.5196419 C179.647546,35.4163467 179.557037,35.358899 179.421275,35.3136038 C179.231534,35.2451086 179.096316,35.2799086 178.903849,35.2799086 L176.620416,35.2799086 L176.620416,38.0860038 L179.746778,38.0860038 L179.746778,38.8957943 C179.579392,38.815699 179.466529,38.780899 179.275152,38.7367086 C179.14048,38.7118514 179.039612,38.7118514 178.903849,38.7118514 L176.654221,38.7118514 L176.654221,42.5227276 L179.343852,42.5227276 C179.71461,42.5227276 179.928341,42.4995276 180.277289,42.3862895 C180.434861,42.3404419 180.52537,42.2951467 180.660042,42.202899 L180.367253,43.1629371 Z" id="Fill-75"></path>
                <path d="M188.62425,39.2374971 C188.577905,39.3639924 188.5899,39.4534781 188.5899,39.5915733 L188.60135,42.430259 C188.004866,42.8312876 186.923125,43.2312114 185.798856,43.2765067 C183.109771,43.3891924 180.99536,41.4276876 181.027529,38.941421 C181.072238,36.1358781 183.018717,34.5256876 185.595485,34.5499924 C186.450954,34.5599352 186.990734,34.5947352 187.778595,34.9024114 L187.778595,35.7806971 C186.979284,35.2907352 186.1369,35.2227924 185.426463,35.2227924 C183.053612,35.25704 181.893358,37.1274019 181.938067,38.929821 C182.006766,41.0404686 183.626651,42.6246971 185.83157,42.5225067 C186.540918,42.4893638 187.070338,42.3755733 187.733886,41.9878019 L187.733886,40.3560686 C187.733886,39.9798971 187.75624,39.704259 187.643922,39.3512876 C187.586673,39.1695543 187.50925,39.0784114 187.384937,38.941421 L188.780732,38.941421 C188.702218,39.0441638 188.657509,39.112659 188.62425,39.2374971" id="Fill-77"></path>
                <path d="M194.574424,43.1629371 L189.724038,43.1629371 C189.804733,43.0474895 189.836356,42.9673943 189.871251,42.8431086 C189.91596,42.6818133 189.893605,42.5685752 189.893605,42.4094895 L189.893605,35.2677562 C189.893605,35.1191657 189.871251,35.0291276 189.824906,34.9026324 C189.780742,34.7998895 189.746938,34.7429943 189.668424,34.6634514 L193.955586,34.6634514 L193.955586,35.5196419 C193.854718,35.4163467 193.764755,35.358899 193.628446,35.3136038 C193.438706,35.2451086 193.302398,35.2799086 193.112657,35.2799086 L190.827588,35.2799086 L190.827588,38.0860038 L193.955586,38.0860038 L193.955586,38.8957943 C193.787109,38.815699 193.674791,38.780899 193.483415,38.7367086 C193.347107,38.7118514 193.247329,38.7118514 193.112657,38.7118514 L190.861393,38.7118514 L190.861393,42.5227276 L193.549933,42.5227276 C193.921236,42.5227276 194.136058,42.4995276 194.484461,42.3862895 C194.641488,42.3404419 194.732542,42.2951467 194.867214,42.202899 L194.574424,43.1629371 Z" id="Fill-79"></path>
            </g>
        </g>
    </g>
</svg>